<svg xmlns="http://www.w3.org/2000/svg" xmlns:xlink="http://www.w3.org/1999/xlink" viewBox="0 0 455.59 455.52"><defs><style>.cls-1{fill:url(#New_Gradient_Swatch);}.cls-2{fill:#fefefe;}.cls-3{fill:url(#New_Gradient_Swatch-2);}</style><linearGradient id="New_Gradient_Swatch" x1="41.25" y1="106.12" x2="389.14" y2="400.11" gradientUnits="userSpaceOnUse"><stop offset="0" stop-color="#c30"/><stop offset="1" stop-color="#ffba00"/></linearGradient><linearGradient id="New_Gradient_Swatch-2" x1="117.9" y1="227.76" x2="337.7" y2="227.76" xlink:href="#New_Gradient_Swatch"/></defs><g id="Layer_2" data-name="Layer 2"><g id="Layer_1-2" data-name="Layer 1"><path class="cls-1" d="M455.58,228.68c-.48,50.41-15.3,96.26-46,136.33-39.34,51.28-91.33,81.25-155.67,88.86-54.73,6.47-105.18-6.23-151.37-36-4.16-2.68-7.17.3-10.7-.06-17.61,4.8-35.13,9.94-52.85,14.27-9.52,2.32-17.67-7.31-15.09-17.26,4.75-18.32,9.7-36.6,14.71-54.86a8.08,8.08,0,0,0-1.11-7.38c-4-5.92-7.94-11.87-10.68-18.5C16.14,315.52,9.47,295.46,5.06,274.63c-1.57-7.41-3.6-14.81-3.26-22.52-2.1-11.34-2-22.81-1.53-34.25C.83,203.4,3.22,189.15,6,175a6.37,6.37,0,0,1,1-1.72c3.41-16.76,9.7-32.5,17.22-47.78,2.75-5.59,5.48-11.23,9.32-16.21,17.69-29.6,41.33-53.47,70-72.37,27-17.77,56.65-28.83,88.5-34.1a17,17,0,0,1,2.48-.08,209.17,209.17,0,0,1,77,1.82,214.76,214.76,0,0,1,65.22,23.16c2.6,1.42,5.08,3.07,7.61,4.61a213.92,213.92,0,0,1,63.51,56.21c19.23,24.15,32.26,51.38,40.22,81.11,1.28,4.8,2.78,9.58,3.05,14.6C454.73,198.82,455.72,213.75,455.58,228.68Z"/><path class="cls-2" d="M289.41,72.55c10.2,4.74,20.35,9.53,29.8,15.72,14.86,9.72,27.51,21.83,39.1,35.16,10.55,14.19,19.67,29.18,25.83,45.86a166.25,166.25,0,0,1,10.33,65.55c-.11,2.49-.1,5-.15,7.47-3,27.85-11.44,53.83-27.07,77.26-1.27,1.91-1.11,3.62-.57,5.63,3.4,12.5,6.7,25,10.08,37.51,1.18,4.37,1.54,8.54-2,12.09s-7.56,3.35-12,2.11c-12.31-3.44-24.71-6.55-37-10.05a8.1,8.1,0,0,0-7.36,1.19,167.15,167.15,0,0,1-165,9.28c-1.19-.59-2.42-1.08-3.63-1.62-11.72-6.93-23.07-14.36-33.25-23.5C100,337.38,87.22,319.78,77.15,300.1A229.2,229.2,0,0,1,64.52,262a153.25,153.25,0,0,1-3.47-38c0-1.48-.06-3-.09-4.45,1.42-14.35,3.48-28.59,7.93-42.37,6.54-20.27,16.19-38.82,30-55.22,4.14-4.94,9-9.15,13-14.23A178.23,178.23,0,0,1,155.51,77.3c8.07-4,16.67-6.61,25.1-9.65a244.54,244.54,0,0,1,35-6.25c3.72-.72,7.54.4,11.24-.64,6.3,2,12.84.55,19.27,1.35A212.6,212.6,0,0,1,289.41,72.55Z"/><path class="cls-3" d="M288.69,259.06c-.11,7-5.26,11.59-12.33,11.5-6.81-.08-11.68-4.59-11.82-11.45-.15-7.45.09-14.91.16-22.37-.06-13.59-.27-27.18-.11-40.76.07-6.5,5.09-10.88,11.72-11,6.8-.13,12.22,4.35,12.34,10.95.21,11.6,0,23.2-.09,34.8C288.62,240.16,288.83,249.62,288.69,259.06ZM142.28,217.2c-.26-6.75-4.73-11.17-11.36-11.41-6.94-.26-12.37,3.92-12.72,10.58a209,209,0,0,0,0,22.94c.38,6.62,5.92,10.74,12.87,10.42,6.39-.29,10.87-4.65,11.17-11.08.17-3.48,0-7,0-10.47C142.3,224.52,142.41,220.86,142.28,217.2Zm171.06,21.55c.33,6.62,5,10.9,11.77,11s12-4.07,12.29-10.51a219.42,219.42,0,0,0,0-22.94c-.34-6.45-5.62-10.59-12.3-10.5s-11.41,4.39-11.76,11c-.18,3.48,0,7,0,10.48C313.3,231.1,313.14,234.94,313.34,238.75Zm-73.63-52.91c.06-4,.32-8,.14-11.93-.28-6.42-5.25-10.9-11.81-11-6.82-.1-12.12,4.42-12.26,11-.19,8.61.06,17.24.12,25.86v71.85c-.06,3.32-.31,6.64-.15,9.94.32,6.42,5.25,10.9,11.82,11,6.83.09,12.11-4.41,12.27-11,.19-8-.07-15.92-.13-23.88Zm-48.8,40.92q0-14,0-27.95c.12-7.51-4.34-12.49-11.39-12.73-7.21-.24-12.51,4.84-12.62,12.3-.08,5.12.1,10.25.16,15.38V242.7c-.05,5.14-.3,10.29-.12,15.42.23,6.63,5.38,11.29,12.11,11.32s11.91-4.62,12-11.33C191.21,247.67,191,237.21,190.91,226.76Z"/></g></g></svg>